<svg width="21" height="21" viewBox="0 0 21 21" fill="none" xmlns="http://www.w3.org/2000/svg">
<path fill-rule="evenodd" clip-rule="evenodd" d="M10.5 2.625C8.71836 2.625 8.54992 5.72821 7.48922 6.82463C6.42852 7.92105 3.13092 6.66743 2.67276 8.61352C2.21557 10.5606 5.18206 11.2213 5.54782 12.8918C5.9155 14.5622 4.10307 16.9093 5.65177 18.0774C7.20047 19.2444 8.86756 16.6029 10.5 16.6029C12.1324 16.6029 13.7995 19.2444 15.3482 18.0774C16.8969 16.9093 15.0854 14.5622 15.4522 12.8918C15.8189 11.2213 18.7844 10.5606 18.3272 8.61352C17.87 6.66743 14.5715 7.92105 13.5117 6.82463C12.451 5.72821 12.2816 2.625 10.5 2.625Z" stroke="#595959" stroke-width="1.5" stroke-linecap="round" stroke-linejoin="round"/>
</svg>
