<svg width="54" height="54" viewBox="0 0 54 54" fill="none" xmlns="http://www.w3.org/2000/svg">
<path d="M41.3026 36.005L44.0126 52.685C44.0826 53.105 43.9126 53.505 43.5626 53.755C43.2126 54.005 42.7926 54.025 42.4126 53.815L28.4625 46.085C28.0025 45.835 27.5026 45.705 27.0026 45.705C26.5026 45.705 25.9926 45.835 25.5426 46.085L11.5926 53.815C11.2226 54.025 10.7926 53.995 10.4426 53.755C10.0926 53.505 9.92255 53.105 9.99255 52.685L12.7026 36.005C12.8526 35.065 12.5526 34.085 11.8826 33.405L0.312551 21.505C0.0225509 21.205 -0.0774492 20.795 0.0625508 20.395C0.192551 20.005 0.522551 19.725 0.932551 19.665L16.7425 17.245C17.7425 17.095 18.5926 16.455 19.0226 15.535L26.0226 0.585C26.3926 -0.195 27.6225 -0.195 27.9825 0.585L34.9826 15.535C35.4126 16.455 36.2626 17.095 37.2626 17.245L53.0726 19.665C53.4826 19.725 53.8026 20.005 53.9426 20.395C54.0726 20.795 53.9826 21.205 53.6926 21.505L42.1226 33.395C41.4526 34.085 41.1426 35.055 41.3026 36.005Z" fill="black"/>
</svg>
