<svg width="42" height="95" viewBox="0 0 42 95" fill="none" xmlns="http://www.w3.org/2000/svg">
<path d="M26.0535 43.666V21.832C28.8915 22.405 31.4965 23.736 33.4345 25.611C34.3455 26.492 35.5465 26.978 36.8125 26.978C38.1225 26.978 39.3965 26.437 40.3025 25.495C42.1645 23.57 42.1125 20.489 40.1885 18.625C36.6985 15.25 32.2095 13.015 27.2085 12.162C26.8335 12.098 26.4495 12.043 26.0535 11.997V4.859C26.0535 2.179 23.8735 0 21.1945 0C18.5155 0 16.3355 2.179 16.3355 4.859V12.687C8.39749 14.885 2.5935 20.869 1.3175 28.371C-0.345505 38.134 6.0345 47.654 16.3355 51.199V72.833C13.2175 72.195 10.4305 70.665 8.4425 68.489C7.5245 67.485 6.21749 66.909 4.85749 66.909C3.64249 66.909 2.4805 67.36 1.5735 68.183C-0.398504 69.988 -0.535504 73.068 1.2675 75.047C4.8215 78.933 9.7775 81.583 15.2155 82.506C15.5805 82.57 15.9505 82.622 16.3355 82.67V90.037C16.3355 92.716 18.5155 94.896 21.1945 94.896C23.8735 94.896 26.0535 92.716 26.0535 90.037V81.98C33.8065 79.816 39.6105 73.887 41.0855 66.43C42.1695 60.98 41.2655 56.152 38.3975 52.077C35.0435 47.309 29.7685 44.863 26.0535 43.666ZM26.0535 71.583V54.145C27.6665 54.958 29.3515 56.107 30.4525 57.671C31.7645 59.536 32.1155 61.719 31.5585 64.539C30.9625 67.528 28.9435 70.055 26.0535 71.583ZM16.3355 23.06V40.498C12.4185 38.023 10.2165 33.985 10.8925 30.004C11.3965 27.065 13.3965 24.573 16.3355 23.06Z" fill="black"/>
</svg>
